<svg width="713" height="750" viewBox="0 0 713 750" fill="none" xmlns="http://www.w3.org/2000/svg">
<path d="M76.9255 642.44C58.0721 642.44 42.3921 635.347 29.8855 621.16C17.5655 606.787 11.4055 589.334 11.4055 568.8V519.8C11.4055 515.32 11.4988 512.054 11.6855 510C12.0588 507.947 12.8988 505.52 14.2055 502.72C16.8188 497.68 24.0988 495.16 36.0455 495.16C49.1121 495.16 56.7655 498.707 59.0055 505.8C60.1255 508.787 60.6855 513.547 60.6855 520.08V569.08C60.6855 576.734 62.8321 582.707 67.1255 587C71.6055 591.294 77.4855 593.44 84.7655 593.44C92.2321 593.44 98.2055 591.2 102.685 586.72C107.352 582.24 109.685 576.36 109.685 569.08V519.52C109.685 515.227 109.779 512.054 109.965 510C110.339 507.76 111.272 505.24 112.765 502.44C115.192 497.587 122.379 495.16 134.325 495.16C146.085 495.16 153.272 497.68 155.885 502.72C157.192 505.52 157.939 508.04 158.125 510.28C158.499 512.334 158.685 515.507 158.685 519.8V618.92C158.685 623.027 158.499 626.2 158.125 628.44C157.939 630.494 157.099 632.827 155.605 635.44C152.805 640.294 145.619 642.72 134.045 642.72C122.659 642.72 115.659 640.48 113.045 636C111.179 632.827 110.245 629 110.245 624.52C109.499 625.827 107.819 627.694 105.205 630.12C102.592 632.547 100.072 634.6 97.6455 636.28C91.2988 640.387 84.3921 642.44 76.9255 642.44ZM178.41 683.04V519.52C178.41 515.227 178.503 512.054 178.69 510C179.063 507.947 179.903 505.614 181.21 503C183.823 497.96 190.077 495.44 199.97 495.44C209.863 495.44 216.49 496.747 219.85 499.36C223.397 501.787 225.45 505.427 226.01 510.28C233.103 500.574 244.21 495.72 259.33 495.72C274.637 495.72 289.103 502.907 302.73 517.28C316.357 531.654 323.17 548.36 323.17 567.4C323.17 586.44 316.357 603.147 302.73 617.52C289.29 631.894 274.917 639.08 259.61 639.08C244.303 639.08 233.197 634.787 226.29 626.2V682.76C226.29 687.054 226.103 690.227 225.73 692.28C225.543 694.334 224.703 696.667 223.21 699.28C221.903 702.08 219.57 704.04 216.21 705.16C212.85 706.28 208.277 706.84 202.49 706.84C196.703 706.84 192.037 706.28 188.49 705.16C185.13 704.04 182.703 702.174 181.21 699.56C179.903 696.947 179.063 694.614 178.69 692.56C178.503 690.507 178.41 687.334 178.41 683.04ZM233.85 551.16C229.557 556.2 227.41 561.707 227.41 567.68C227.41 573.654 229.557 579.16 233.85 584.2C238.33 589.054 243.93 591.48 250.65 591.48C257.557 591.48 263.343 589.054 268.01 584.2C272.863 579.347 275.29 573.84 275.29 567.68C275.29 561.52 273.05 556.014 268.57 551.16C264.09 546.12 258.21 543.6 250.93 543.6C243.837 543.6 238.143 546.12 233.85 551.16ZM338.579 450.64C338.579 446.347 338.672 443.174 338.859 441.12C339.232 438.88 340.072 436.36 341.379 433.56C343.992 428.52 351.272 426 363.219 426C374.606 426 381.699 428.52 384.499 433.56C385.992 436.36 386.832 438.88 387.019 441.12C387.392 443.36 387.579 446.627 387.579 450.92V580.56C387.579 587.28 388.139 591.574 389.259 593.44C390.379 595.12 392.806 595.96 396.539 595.96C400.459 595.96 403.072 596.147 404.379 596.52C405.686 596.707 407.272 597.454 409.139 598.76C412.872 601.187 414.739 607.814 414.739 618.64C414.739 630.4 412.872 637.587 409.139 640.2C404.286 643.56 392.712 644.12 374.419 641.88C360.046 640.014 350.712 635.254 346.419 627.6C341.192 618.454 338.579 603.894 338.579 583.92V450.64ZM427.38 520.08C427.38 515.787 427.474 512.614 427.66 510.56C428.034 508.32 428.874 505.8 430.18 503C432.794 498.147 440.074 495.72 452.02 495.72C460.98 495.72 467.327 497.307 471.06 500.48C474.234 503.094 475.914 507.107 476.1 512.52C476.287 514.387 476.38 517.094 476.38 520.64V618.64C476.38 622.934 476.194 626.2 475.82 628.44C475.634 630.494 474.794 632.92 473.3 635.72C470.874 640.574 463.687 643 451.74 643C439.98 643 432.794 640.48 430.18 635.44C428.874 632.64 428.034 630.214 427.66 628.16C427.474 626.107 427.38 622.84 427.38 618.36V520.08ZM473.3 468.28C471.994 470.894 469.567 472.76 466.02 473.88C462.474 475 457.714 475.56 451.74 475.56C445.954 475.56 441.287 475 437.74 473.88C434.194 472.76 431.674 470.8 430.18 468C428.874 465.2 428.034 462.774 427.66 460.72C427.474 458.48 427.38 455.214 427.38 450.92C427.38 446.627 427.474 443.454 427.66 441.4C428.034 439.16 428.874 436.734 430.18 434.12C432.794 429.08 440.074 426.56 452.02 426.56C463.78 426.56 470.874 429.08 473.3 434.12C474.794 436.92 475.634 439.44 475.82 441.68C476.194 443.734 476.38 446.907 476.38 451.2C476.38 455.494 476.194 458.76 475.82 461C475.634 463.054 474.794 465.48 473.3 468.28ZM683.828 545L665.628 543.88V582.52C665.628 587.56 666.374 591.2 667.868 593.44C669.548 595.68 672.534 596.8 676.828 596.8C681.308 596.8 684.668 596.987 686.908 597.36C689.334 597.547 691.761 598.387 694.188 599.88C698.668 602.307 700.908 608.56 700.908 618.64C700.908 630.4 698.294 637.587 693.068 640.2C690.268 641.507 687.748 642.347 685.508 642.72C683.454 642.907 680.374 643 676.268 643C657.974 643 643.508 637.867 632.868 627.6C622.228 617.334 616.908 603.24 616.908 585.32V543.88C606.828 544.44 598.241 544.72 591.148 544.72L563.988 543.6V618.64C563.988 625.734 563.054 631.054 561.188 634.6C559.508 637.96 556.801 640.2 553.068 641.32C549.521 642.44 544.854 643 539.068 643C533.281 643 528.614 642.44 525.068 641.32C521.708 640.014 519.281 638.054 517.788 635.44C516.294 632.64 515.361 630.12 514.988 627.88C514.801 625.64 514.708 622.374 514.708 618.08V543.88C510.974 544.44 507.054 544.72 502.948 544.72C499.028 544.72 495.668 543.134 492.868 539.96C490.254 536.787 488.948 531.374 488.948 523.72C488.948 516.067 489.414 510.56 490.348 507.2C491.281 503.654 492.588 501.134 494.268 499.64C497.254 497.214 500.988 496 505.468 496L514.708 497.12V482.28C514.708 467.907 519.841 454.934 530.108 443.36C540.374 431.6 555.214 425.72 574.628 425.72C578.921 425.72 582.094 425.907 584.148 426.28C586.388 426.467 588.908 427.214 591.708 428.52C596.748 431.134 599.268 438.414 599.268 450.36C599.268 459.32 597.681 465.667 594.508 469.4C591.894 472.574 587.788 474.254 582.188 474.44C580.508 474.627 577.894 474.72 574.348 474.72C567.441 474.72 563.988 477.054 563.988 481.72V497.12C574.254 496.374 583.214 496 590.868 496L616.908 497.12V468.28C616.908 463.987 617.001 460.814 617.188 458.76C617.561 456.707 618.401 454.467 619.708 452.04C622.321 447.374 629.601 445.04 641.548 445.04C654.241 445.04 661.708 448.494 663.948 455.4C665.068 458.387 665.628 463.147 665.628 469.68V497.12C673.841 496.374 680.001 496 684.108 496C688.401 496 691.574 496.187 693.628 496.56C695.868 496.747 698.294 497.587 700.908 499.08C705.948 501.507 708.468 508.694 708.468 520.64C708.468 532.4 705.948 539.587 700.908 542.2C698.108 543.507 695.588 544.347 693.348 544.72C691.294 544.907 688.121 545 683.828 545Z" fill="url(#paint0_linear_188_1038)"/>
<path d="M422.963 21.6635C423.202 21.9162 423.405 22.1654 423.608 22.4181C423.677 22.4893 423.705 22.5604 423.774 22.6316C425.838 25.1063 427.634 27.7443 429.139 30.5115L480.501 123.725L506.839 171.571L520.231 195.894L552.198 253.947C558.606 265.6 559.902 278.913 555.841 291.35C551.779 303.787 542.644 314.48 530.174 321.392C517.704 328.303 502.771 330.951 488.219 328.831C473.667 326.71 460.512 319.97 451.261 309.893L399.952 253.861L399.887 253.79L390.716 243.761L375.887 227.595L374.146 225.684L372.409 223.772L287.522 131.118L324.112 36.2311C327.411 27.6906 333.287 20.0936 341.115 14.2481C348.944 8.4022 358.432 4.52631 368.572 3.03218C378.711 1.5377 389.123 2.48123 398.7 5.76168C408.278 9.04249 416.662 14.5378 422.963 21.6635Z" fill="url(#paint1_linear_188_1038)"/>
<g style="mix-blend-mode:multiply" opacity="0.1">
<g style="mix-blend-mode:multiply" opacity="0.1">
<path d="M422.964 21.6622C423.203 21.9149 423.406 22.1641 423.609 22.4168C423.678 22.488 423.706 22.5592 423.775 22.6303C425.839 25.105 427.635 27.743 429.14 30.5102L480.502 123.724L506.84 171.569L504.884 172.776L390.737 243.759L375.908 227.594L374.167 225.682L372.43 223.771L287.543 131.116L324.133 36.2298C327.434 27.6932 333.31 20.1005 341.137 14.2578C348.964 8.41514 358.449 4.54107 368.585 3.04695C378.721 1.55318 389.129 2.4949 398.704 5.7725C408.279 9.05011 416.662 14.5411 422.964 21.6622Z" fill="black"/>
</g>
</g>
<path d="M388.229 0.861545H388.265C388.862 0.978996 389.462 1.06082 390.059 1.17471C400.159 2.9589 409.497 7.16297 417.036 13.3199C424.577 19.4772 430.023 27.3465 432.772 36.0542L480.501 123.723C480.455 123.76 480.413 123.8 480.375 123.844C480.164 124.082 479.936 124.309 479.694 124.524L478.975 125.2L374.167 225.681L294.994 301.662C294.921 301.732 294.838 301.793 294.747 301.843V301.875C294.681 301.917 294.624 301.969 294.58 302.028C294.54 302.072 294.496 302.114 294.45 302.153L291.991 304.52C285.717 310.77 277.846 315.628 269.021 318.699C260.196 321.77 250.667 322.965 241.214 322.187C233.926 321.592 226.826 319.824 220.269 316.97L220.233 316.934C220.168 316.915 220.106 316.887 220.05 316.852C219.959 316.837 219.873 316.806 219.795 316.763C219.67 316.704 219.55 316.638 219.433 316.567C217.897 315.925 216.406 315.201 214.969 314.4C208.263 310.742 202.459 305.944 197.9 300.288L197.697 300.071C197.425 299.747 197.121 299.387 196.857 299.032C190.79 291.067 187.315 281.802 186.804 272.234C186.294 262.666 188.768 253.157 193.96 244.73L300.286 71.6527L300.842 70.6988L300.935 70.5387L328.126 26.2773C333.724 16.9581 342.583 9.45966 353.402 4.88439C364.221 0.309483 376.428 -1.10061 388.229 0.861545Z" fill="url(#paint2_linear_188_1038)"/>
<g style="mix-blend-mode:multiply" opacity="0.3">
<g style="mix-blend-mode:multiply" opacity="0.3">
<path d="M480.354 123.846C480.142 124.084 479.915 124.311 479.672 124.526C479.471 124.783 479.241 125.021 478.986 125.238C477.736 126.604 475.638 128.797 472.899 131.712C467.952 136.716 461.13 144.03 452.567 152.543C444.004 161.057 434.227 171.097 423.437 181.661C412.719 192.263 401.14 203.432 389.522 214.625C384.989 218.96 380.419 223.292 375.89 227.595L374.149 225.683L294.976 301.664C294.904 301.734 294.82 301.795 294.729 301.845C295.541 300.977 298.077 298.286 302.034 294.165C306.94 289.161 313.803 281.847 322.325 273.333C330.847 264.82 340.701 254.779 351.455 244.212C358.172 237.589 365.221 230.723 372.428 223.772C376.714 219.619 381.044 215.433 385.37 211.248C397.017 200.122 408.705 188.996 419.772 178.689C430.839 168.381 441.329 158.861 450.233 150.646C459.137 142.432 466.848 135.787 472.071 131.043C475.175 128.327 477.521 126.316 478.909 125.095C479.639 124.455 480.094 124.038 480.354 123.846Z" fill="black"/>
</g>
</g>
<g style="mix-blend-mode:multiply" opacity="0.3">
<g style="mix-blend-mode:multiply" opacity="0.3">
<path d="M388.266 0.866523C388.862 0.983974 389.463 1.06583 390.06 1.17972C400.159 2.96391 409.497 7.1676 417.037 13.3249C424.577 19.4818 430.024 27.3511 432.773 36.0592L480.502 123.724L506.84 171.57L520.232 195.893L552.199 253.946C558.833 266.003 559.99 279.822 555.435 292.6C550.881 305.378 540.955 316.158 527.671 322.754C534.108 319.104 539.784 314.513 544.452 309.18C549.14 303.93 552.554 297.894 554.484 291.445C556.273 285.043 556.709 278.409 555.77 271.87C555.553 270.231 555.205 268.607 554.728 267.011C554.289 265.41 554.046 263.787 553.453 262.203L551.59 257.544L550.657 255.199L550.418 254.611L550.162 254.156L549.521 253.038C542.666 240.937 535.767 228.882 529.108 216.735L509.011 180.314C507.643 177.798 506.231 175.332 504.864 172.798C499.535 163.152 494.207 153.536 488.996 143.833L478.988 125.258L478.956 125.223L478.891 125.116L469.26 107.242C462.723 95.0234 456.067 82.8654 449.687 70.5615L430.39 33.8063L430.354 33.7707L430.326 33.6995C429.46 31.7299 428.457 29.8094 427.322 27.948C426.224 26.1207 425.042 24.3554 423.776 22.652C423.707 22.5808 423.678 22.5096 423.609 22.4384C423.406 22.1857 423.203 21.9366 422.964 21.6839C421.81 20.1609 420.556 18.6992 419.206 17.3061C418.445 16.4655 417.632 15.6626 416.771 14.9002C415.949 14.0972 415.077 13.3356 414.157 12.6188C413.244 11.907 412.376 11.1382 411.419 10.4833L408.468 8.50797C407.506 7.89579 406.439 7.37262 405.379 6.78537C404.364 6.16999 403.289 5.63504 402.165 5.1873C401.07 4.73173 399.986 4.20853 398.854 3.76364L395.397 2.64609C393.06 1.93462 390.679 1.3406 388.266 0.866523Z" fill="black"/>
</g>
</g>
<g style="mix-blend-mode:screen" opacity="0.6">
<g style="mix-blend-mode:screen" opacity="0.6">
<path d="M300.285 71.6552C299.384 73.3177 297.505 76.6665 294.867 81.425C290.939 88.312 285.464 98.2419 278.549 109.959C271.634 121.675 263.732 135.442 254.95 150.042C246.237 164.68 236.745 180.191 227.253 195.734C217.691 211.202 208.126 226.67 198.979 241.109C194.604 247.796 191.545 255.082 189.929 262.66C188.646 269.461 188.993 276.422 190.947 283.1C192.787 288.754 195.647 294.114 199.417 298.977C202.381 302.756 205.769 306.265 209.53 309.452C212.007 311.464 214.598 313.364 217.294 315.146C218.718 316.065 219.688 316.609 220.041 316.841C220.097 316.876 220.159 316.903 220.224 316.922C220.073 316.875 219.926 316.818 219.785 316.752C219.661 316.692 219.54 316.627 219.424 316.556C218.917 316.314 218.126 315.915 217.119 315.363C214.214 313.796 211.437 312.052 208.808 310.146C204.814 307.177 201.163 303.872 197.907 300.276L197.704 300.059C197.433 299.735 197.128 299.376 196.864 299.02C190.797 291.055 187.322 281.79 186.811 272.222C186.301 262.654 188.775 253.145 193.967 244.718L300.285 71.6552Z" fill="white"/>
</g>
</g>
<g style="mix-blend-mode:screen" opacity="0.4">
<g style="mix-blend-mode:screen" opacity="0.4">
<path d="M399.952 253.86C400.617 254.416 406.217 259.345 413.875 266.78C417.982 270.755 422.69 275.478 427.629 280.557C432.568 285.636 437.685 291.192 442.843 296.719C445.36 299.528 447.88 302.304 450.363 305.08C452.642 307.759 455.08 310.332 457.668 312.785C460.117 315.007 462.763 317.054 465.582 318.907C468.166 320.536 470.868 322.018 473.67 323.342C476.071 324.458 478.544 325.451 481.076 326.317C483.353 327.104 485.382 327.705 487.086 328.143C488.871 328.622 490.683 329.017 492.516 329.325C484.502 328.681 476.717 326.629 469.626 323.29C462.535 319.951 456.284 315.395 451.244 309.892L399.952 253.86Z" fill="white"/>
</g>
</g>
<g style="mix-blend-mode:screen" opacity="0.3">
<g style="mix-blend-mode:screen" opacity="0.3">
<path d="M356.341 14.8026C271.333 174.91 254.946 262.707 260.643 310.666C249.706 313.529 237.969 312.921 227.492 308.951L223.238 307.1C222.427 306.698 221.575 306.264 220.962 305.947C215.545 302.985 210.855 299.107 207.164 294.54L206.352 293.572C201.388 287.113 198.535 279.584 198.106 271.803C197.677 264.023 199.687 256.288 203.917 249.438L310.243 76.3618L310.937 75.1872L338.14 31.0006C342.291 24.1696 348.614 18.5426 356.341 14.8026Z" fill="white"/>
</g>
</g>
<defs>
<linearGradient id="paint0_linear_188_1038" x1="-51.8956" y1="-593.999" x2="745.135" y2="-570.869" gradientUnits="userSpaceOnUse">
<stop stop-color="#003BC8"/>
<stop offset="1" stop-color="#C099FC"/>
</linearGradient>
<linearGradient id="paint1_linear_188_1038" x1="558.163" y1="165.943" x2="287.522" y2="165.943" gradientUnits="userSpaceOnUse">
<stop stop-color="#9796F0"/>
<stop offset="1" stop-color="#FBC7D4"/>
</linearGradient>
<linearGradient id="paint2_linear_188_1038" x1="480.501" y1="161.209" x2="186.739" y2="161.209" gradientUnits="userSpaceOnUse">
<stop stop-color="#1488CC"/>
<stop offset="1" stop-color="#2B32B2"/>
</linearGradient>
</defs>
</svg>
